<mxfile host="app.diagrams.net" modified="2022-04-09T19:29:31.421Z" agent="5.0 (Windows)" etag="T7ZhmyiL-YcAKCDWNifK" version="17.4.1" type="github">
  <diagram id="O8jyunJEI8e6I3l1kuSJ" name="Page-1">
    <mxGraphModel dx="-1365" dy="643" grid="1" gridSize="10" guides="1" tooltips="1" connect="1" arrows="1" fold="1" page="1" pageScale="1" pageWidth="850" pageHeight="1100" math="0" shadow="0">
      <root>
        <mxCell id="0" />
        <mxCell id="1" parent="0" />
        <mxCell id="dQo4U5TFaQpH9ET-aqew-1" value="&lt;font style=&quot;font-size: 12px&quot; face=&quot;Helvetica&quot;&gt;Lord &lt;span class=&quot;markedContent&quot; id=&quot;page3R_mcid11&quot;&gt;&lt;span style=&quot;left: 120px ; top: 66.2621px ; transform: scalex(0.883894)&quot; dir=&quot;ltr&quot;&gt;Hallowy&lt;/span&gt;&lt;/span&gt;&lt;/font&gt;" style="rounded=0;whiteSpace=wrap;html=1;" vertex="1" parent="1">
          <mxGeometry x="2560" y="10" width="120" height="60" as="geometry" />
        </mxCell>
        <mxCell id="dQo4U5TFaQpH9ET-aqew-2" value="TS" style="rounded=0;whiteSpace=wrap;html=1;" vertex="1" parent="1">
          <mxGeometry x="2705" y="340" width="120" height="60" as="geometry" />
        </mxCell>
        <mxCell id="dQo4U5TFaQpH9ET-aqew-3" value="S" style="rounded=0;whiteSpace=wrap;html=1;" vertex="1" parent="1">
          <mxGeometry x="2845" y="340" width="120" height="60" as="geometry" />
        </mxCell>
        <mxCell id="dQo4U5TFaQpH9ET-aqew-4" value="CUI" style="rounded=0;whiteSpace=wrap;html=1;" vertex="1" parent="1">
          <mxGeometry x="2985" y="340" width="120" height="60" as="geometry" />
        </mxCell>
        <mxCell id="dQo4U5TFaQpH9ET-aqew-5" value="U" style="rounded=0;whiteSpace=wrap;html=1;" vertex="1" parent="1">
          <mxGeometry x="3125" y="340" width="120" height="60" as="geometry" />
        </mxCell>
        <mxCell id="dQo4U5TFaQpH9ET-aqew-6" value="" style="rounded=0;whiteSpace=wrap;html=1;" vertex="1" parent="1">
          <mxGeometry x="2985" y="420" width="120" height="350" as="geometry" />
        </mxCell>
        <mxCell id="dQo4U5TFaQpH9ET-aqew-7" value="" style="rounded=0;whiteSpace=wrap;html=1;" vertex="1" parent="1">
          <mxGeometry x="2845" y="420" width="120" height="470" as="geometry" />
        </mxCell>
        <mxCell id="dQo4U5TFaQpH9ET-aqew-8" value="" style="rounded=0;whiteSpace=wrap;html=1;" vertex="1" parent="1">
          <mxGeometry x="2705" y="420" width="120" height="350" as="geometry" />
        </mxCell>
        <mxCell id="dQo4U5TFaQpH9ET-aqew-9" value="&lt;div align=&quot;left&quot;&gt;&lt;ul&gt;&lt;li&gt;One of the four lords&lt;/li&gt;&lt;li&gt;Provides crops and livestock to the kingdom&lt;/li&gt;&lt;/ul&gt;&lt;/div&gt;" style="rounded=0;whiteSpace=wrap;html=1;" vertex="1" parent="1">
          <mxGeometry x="3125" y="420" width="120" height="350" as="geometry" />
        </mxCell>
        <mxCell id="dQo4U5TFaQpH9ET-aqew-11" value="&lt;ul&gt;&lt;li&gt;Drow Elf&lt;/li&gt;&lt;li&gt;6&#39; 5&#39;&#39;&lt;/li&gt;&lt;li&gt;170 pounds&lt;/li&gt;&lt;li&gt;White Hair&lt;br&gt;&lt;/li&gt;&lt;/ul&gt;" style="rounded=0;whiteSpace=wrap;html=1;" vertex="1" parent="1">
          <mxGeometry x="2705" y="10" width="305" height="300" as="geometry" />
        </mxCell>
        <mxCell id="dQo4U5TFaQpH9ET-aqew-13" value="" style="shape=image;verticalLabelPosition=bottom;labelBackgroundColor=default;verticalAlign=top;aspect=fixed;imageAspect=0;image=https://i.pinimg.com/originals/e6/ef/99/e6ef99355b0060adb99848f2fb07a643.jpg;" vertex="1" parent="1">
          <mxGeometry x="3060" y="5" width="167.52" height="310" as="geometry" />
        </mxCell>
      </root>
    </mxGraphModel>
  </diagram>
</mxfile>
